<?xml version="1.0" standalone="no"?>
<!DOCTYPE svg PUBLIC "-//W3C//DTD SVG 20010904//EN"
 "http://www.w3.org/TR/2001/REC-SVG-20010904/DTD/svg10.dtd">
<svg version="1.0" xmlns="http://www.w3.org/2000/svg"
 width="700.000000pt" height="700.000000pt" viewBox="0 0 700.000000 700.000000"
 preserveAspectRatio="xMidYMid meet">
<metadata>
Created by potrace 1.14, written by Peter Selinger 2001-2017
</metadata>
<g transform="translate(0.000000,700.000000) scale(0.100000,-0.100000)"
fill="#000000" stroke="none">
<path d="M1065 6044 c-42 -21 -91 -71 -110 -110 -13 -29 -15 -302 -15 -2528
l0 -2496 1185 0 1185 0 0 770 0 770 205 0 205 0 0 -770 0 -770 1185 0 1185 0
0 2490 c0 2229 -2 2495 -16 2528 -19 47 -58 88 -106 113 -36 19 -95 19 -2455
19 -2168 0 -2421 -2 -2448 -16z m3065 -2149 l0 -205 -615 0 -615 0 0 205 0
205 615 0 615 0 0 -205z"/>
</g>
</svg>
